<svg fill="none" height="100" viewBox="0 0 211 100" width="211" xmlns="http://www.w3.org/2000/svg"><g fill="#fdfaf1"><path d="m8.7885 23.6991v21.312h5.888v-7.616h9.696v-4.608h-9.696v-4.32h12.832v-4.768zm35.9673 21.312h6.368l-9.312-21.408h-6.688l-9.28 21.408h5.984l1.504-3.584h9.92zm-6.496-15.52h.064l3.264 7.872h-6.592zm15.2025-5.792v21.312h5.376v-15.36h.064l6.56 15.36h4.416l6.528-15.36h.064v15.36h5.856v-21.312h-8.64l-5.728 13.6h-.096l-5.76-13.6zm33.3875 0v21.312h6.016v-21.312zm10.5362 0v21.312h17.664v-5.056h-11.712v-16.256zm20.606 0v21.312h6.016v-21.312zm10.536 0v21.312h19.008v-4.64h-13.12v-4h9.952v-4.32h-9.952v-3.712h13.12v-4.64zm31.51-.448c-6.048 0-10.048 2.784-10.048 6.912 0 3.52 1.984 5.28 9.248 6.4 4.64.8 5.536 1.12 5.536 2.4 0 1.184-1.472 1.92-4.288 1.92s-4.736-.928-5.088-3.392l-5.824.608c.384 4.192 3.552 7.36 10.88 7.36 6.176 0 10.432-2.336 10.432-7.072 0-3.648-1.92-5.216-9.312-6.4-4.512-.8-5.472-1.056-5.472-2.304 0-1.024 1.248-1.888 3.872-1.888 2.976 0 4.352 1.408 4.768 3.008l5.76-.608c-.512-3.808-3.552-6.944-10.464-6.944zm44.753 15.808v-.864h-2.976v.672c0 1.888-.416 2.592-1.44 2.592-.576 0-1.472-.288-2.592-1.216 1.568-1.728 3.392-4.32 4-7.52l-4.192-.48c-.576 2.176-1.504 4.128-2.944 5.44-1.376-1.184-2.368-2.208-3.392-3.456 4.544-1.44 5.984-3.712 5.984-5.76 0-2.752-2.528-5.312-7.392-5.312-4.352 0-7.36 2.432-7.36 5.632 0 1.504.544 2.784 1.664 4.32-4.576 1.696-5.792 3.936-5.792 6.464 0 3.52 2.944 5.984 8.224 5.984 2.304 0 4.768-.64 7.456-2.176 2.464 1.6 4.32 2.176 5.984 2.176 4.672 0 4.768-4.032 4.768-6.496zm-17.152-10.144c0-.96.672-1.984 2.272-1.984 1.504 0 2.272.992 2.272 1.856 0 .8-.416 2.048-2.976 2.912-1.056-.992-1.568-1.888-1.568-2.784zm-3.776 9.952c0-.992.64-2.048 2.4-2.784 1.472 1.6 2.752 2.912 4.448 4.416-1.184.608-2.432.896-3.52.896-2.112 0-3.328-.96-3.328-2.528zm-167.9635 16.832 7.264 21.408h5.76l4.768-13.824h.064l4.8 13.824h5.76l7.264-21.408h-6.144l-4 14.144h-.064l-4.672-14.144h-5.536l-4.672 14.144h-.064l-4.032-14.144zm48.241-.544c-7.232 0-11.776 4.352-11.776 11.2s4.544 11.2 11.776 11.2 11.744-4.352 11.744-11.2c0-6.816-4.512-11.2-11.744-11.2zm0 4.704c3.264 0 5.696 2.176 5.696 6.496 0 4.288-2.432 6.496-5.696 6.496-3.296 0-5.696-2.208-5.696-6.496 0-4.32 2.4-6.496 5.696-6.496zm21.0852 10.048h3.968l5.088 7.104h6.7203l-5.6963-7.68c2.8801-.96 4.8323-3.168 4.8323-6.528 0-4.608-3.0722-7.104-8.5763-7.104h-12.352v21.312h6.016zm-.032-9.696h5.184c2.5281 0 3.616.864 3.616 2.688s-1.184 2.688-3.712 2.688h-5.088zm33.0903 16.8h7.136s-6.016-8.544-8.64-12.288l8.448-9.024h-7.36l-8.352 9.792v-9.792h-6.016v21.312h6.016v-4.928l3.008-3.296zm9.443-21.312v21.312h19.008v-4.64h-13.12v-4h9.952v-4.32h-9.952v-3.712h13.12v-4.64zm28.556 14.208h3.968l5.088 7.104h6.72l-5.696-7.68c2.88-.96 4.832-3.168 4.832-6.528 0-4.608-3.072-7.104-8.576-7.104h-12.352v21.312h6.016zm-.032-9.696h5.184c2.528 0 3.616.864 3.616 2.688s-1.184 2.688-3.712 2.688h-5.088zm27.557-4.96c-6.048 0-10.048 2.784-10.048 6.912 0 3.52 1.984 5.28 9.248 6.4 4.64.8 5.536 1.12 5.536 2.4 0 1.184-1.472 1.92-4.288 1.92s-4.736-.928-5.088-3.392l-5.824.608c.384 4.192 3.552 7.36 10.88 7.36 6.176 0 10.432-2.336 10.432-7.072 0-3.648-1.92-5.216-9.312-6.4-4.512-.8-5.472-1.056-5.472-2.304 0-1.024 1.248-1.888 3.872-1.888 2.976 0 4.352 1.408 4.768 3.008l5.76-.608c-.512-3.808-3.552-6.944-10.464-6.944z"/><path d="m94.6598 2.672v.928h2.08v4.4h1.104v-4.4h2.08v-.928zm8.3542 0v5.328h1.112v-2.24h2.864v2.24h1.112v-5.328h-1.112v2.16h-2.864v-2.16zm8.633 0v5.328h4.552v-.896h-3.464v-1.384h2.688v-.832h-2.688v-1.32h3.456v-.896z"/><path d="m90.7447 92.3649v5.328h1.088v-2.096h2.56v-.872h-2.56v-1.464h3.328v-.896zm7.3415 0v3.048c0 1.536.88 2.4 2.5358 2.4 1.648 0 2.536-.864 2.536-2.4v-3.048h-1.064v3.048c0 .936-.536 1.44-1.448 1.44-.9118 0-1.4478-.504-1.4478-1.44v-3.048zm8.5258 0v5.328h1.016v-3.768h.016l3.056 3.768h1.08v-5.328h-1.024l.008 3.712h-.016l-3.04-3.712zm8.719 0v5.328h2.24c1.952 0 2.976-1.048 2.976-2.68 0-1.624-1-2.648-2.976-2.648zm1.112.888h1.096c1.232 0 1.896.664 1.896 1.776 0 1.12-.672 1.776-1.896 1.776h-1.096z"/></g></svg>