<svg fill="none" height="80" viewBox="0 0 80 80" width="80" xmlns="http://www.w3.org/2000/svg"><circle cx="39.7516" cy="39.7516" fill="var(--svg-bg, #fff)" r="39.7516"/><path d="m23.388 44.5288v-24.832h29.952v8.064h-21.504v12.16h1.152c.5973-1.664 1.7067-3.0934 3.328-4.288 1.664-1.2374 3.8827-1.856 6.656-1.856 2.0907 0 3.968.3626 5.632 1.088 1.664.7253 3.072 1.728 4.224 3.008s2.0267 2.816 2.624 4.608c.64 1.792.96 3.7546.96 5.888v.384c0 2.2613-.384 4.3946-1.152 6.4-.7253 2.0053-1.8133 3.776-3.264 5.312-1.408 1.4933-3.1573 2.688-5.248 3.584s-4.5013 1.344-7.232 1.344-5.1413-.3627-7.232-1.088c-2.0907-.768-3.8613-1.8134-5.312-3.136-1.408-1.3654-2.496-2.9654-3.264-4.8-.7253-1.8774-1.088-3.904-1.088-6.08v-1.536h8.448v.768c0 2.2613.6827 4.1386 2.048 5.632 1.408 1.4506 3.456 2.176 6.144 2.176s4.8-.7254 6.336-2.176c1.5787-1.4507 2.368-3.456 2.368-6.016 0-2.432-.576-4.2454-1.728-5.44-1.152-1.2374-2.6667-1.856-4.544-1.856-1.2373 0-2.24.2773-3.008.832-.768.512-1.2587 1.1306-1.472 1.856z" fill="var(--svg-fg, #000)"/></svg>
