<svg fill="none" height="80" viewBox="0 0 80 80" width="80" xmlns="http://www.w3.org/2000/svg"><circle cx="40" cy="40" fill="#fff" r="40"/><path d="m55.2542 55.936v8.064h-31.488v-8.832c0-2.3467.3413-4.352 1.024-6.016.7253-1.664 1.728-3.072 3.008-4.224 1.3227-1.152 2.9013-2.0907 4.736-2.816 1.8347-.768 3.904-1.408 6.208-1.92 1.7067-.384 3.0933-.8107 4.16-1.28 1.1093-.512 1.984-1.0667 2.624-1.664.64-.64 1.0667-1.3227 1.28-2.048.256-.768.384-1.6214.384-2.56 0-1.792-.6613-3.2854-1.984-4.48-1.28-1.1947-3.072-1.792-5.376-1.792-2.432 0-4.3733.7466-5.824 2.24-1.4507 1.4506-2.176 3.4773-2.176 6.08v2.816h-8.448v-3.584c0-2.0907.3627-4.0747 1.088-5.952.768-1.92 1.8347-3.584 3.2-4.992 1.408-1.4507 3.1147-2.5814 5.12-3.392 2.0053-.8534 4.2667-1.28 6.784-1.28 2.688 0 5.0347.4053 7.04 1.216 2.0053.768 3.6693 1.792 4.992 3.072 1.3653 1.28 2.368 2.7733 3.008 4.48.6827 1.664 1.024 3.392 1.024 5.184v.768c0 3.7546-1.0667 6.8693-3.2 9.344-2.0907 2.4746-5.5253 4.2666-10.304 5.376-2.0053.4693-3.6693.96-4.992 1.472-1.28.4693-2.2827 1.0026-3.008 1.6-.7253.5973-1.2373 1.2586-1.536 1.984-.256.6826-.384 1.472-.384 2.368v.768z" fill="#000"/></svg>