<svg fill="none" height="80" viewBox="0 0 80 80" width="80" xmlns="http://www.w3.org/2000/svg"><circle cx="40" cy="40" fill="var(--svg-bg, #fff)" r="40"/><path d="m34.8382 44.8v-13.312l11.136-3.072v-1.152h-22.272v-8.064h29.184v14.08l-11.904 3.456v1.152h1.536c1.5787 0 3.136.256 4.672.768 1.536.4693 2.88 1.216 4.032 2.24 1.1947 1.024 2.1547 2.304 2.88 3.84.7254 1.4933 1.088 3.264 1.088 5.312v.768c0 2.0053-.3413 3.8613-1.024 5.568-.64 1.7066-1.6213 3.2-2.944 4.48-1.28 1.2373-2.88 2.2186-4.8 2.944-1.92.7253-4.1173 1.088-6.592 1.088-2.5173 0-4.8-.4054-6.848-1.216-2.048-.8107-3.7973-1.92-5.248-3.328-1.408-1.408-2.496-3.0294-3.264-4.864-.768-1.8347-1.152-3.776-1.152-5.824v-2.688h8.448v2.304c0 2.048.6614 3.8186 1.984 5.312 1.3227 1.4933 3.3067 2.24 5.952 2.24 2.2614 0 3.9894-.576 5.184-1.728 1.2374-1.152 1.856-2.6667 1.856-4.544 0-2.0054-.6613-3.456-1.984-4.352-1.28-.9387-2.9226-1.408-4.928-1.408z" fill="var(--svg-fg, #000)"/></svg>
