<svg height="376.339" viewBox="0 0 800 376.339" width="800" xmlns="http://www.w3.org/2000/svg"><path d="m520.189.654v51.159l-121.943 140.675h-70.471v-11.374l103.745-119.712h-138.357v-60.748z" fill="#ff0012"/><path d="m521.037 247.215c0 71.185-57.894 129.124-129.079 129.124-61.15 0-114.36-43.443-126.537-103.299l59.5-12.087c6.422 31.667 34.611 54.638 67.037 54.638 37.689 0 68.375-30.686 68.375-68.375 0-13.648-4.014-26.627-11.195-37.51l40.767-46.609c19.714 22.926 31.132 52.542 31.132 84.12z" fill="#ff0012"/><path d="m.433 121.681h62.243v253.185h-62.243z" fill="#00bbef"/><path d="m129.192 257.511h-15.777v-62.239h15.777c36.68 0 66.516-29.84 66.516-66.516s-29.836-66.518-66.516-66.518h-129.192v-62.238h129.192c70.998 0 128.759 57.759 128.759 128.757s-57.761 128.755-128.759 128.755z" fill="#00bbef"/><g fill="#ff0012"><path d="m799.152.654v51.159l-121.942 140.675h-70.472v-11.374l103.745-119.712h-138.356v-60.748z"/><path d="m800 247.215c0 71.185-57.894 129.124-129.079 129.124-61.15 0-114.36-43.443-126.537-103.299l59.5-12.087c6.422 31.667 34.611 54.638 67.037 54.638 37.689 0 68.375-30.686 68.375-68.375 0-13.648-4.014-26.627-11.195-37.51l40.767-46.609c19.714 22.926 31.132 52.542 31.132 84.12z"/></g></svg>