<?xml version="1.0" encoding="UTF-8" standalone="no"?>
<!DOCTYPE svg PUBLIC "-//W3C//DTD SVG 1.1//EN" "http://www.w3.org/Graphics/SVG/1.1/DTD/svg11.dtd">
<svg width="100%" height="100%" viewBox="0 0 84 84" version="1.1" xmlns="http://www.w3.org/2000/svg" xmlns:xlink="http://www.w3.org/1999/xlink" xml:space="preserve" xmlns:serif="http://www.serif.com/" style="fill-rule:evenodd;clip-rule:evenodd;stroke-linejoin:round;stroke-miterlimit:2;">
    <g transform="matrix(1,0,0,1,-36,-32)">
        <path d="M120,45.985L120,102.015C120,109.734 113.734,116 106.015,116L49.985,116C42.266,116 36,109.734 36,102.015L36,45.985C36,38.266 42.266,32 49.985,32L106.015,32C113.734,32 120,38.266 120,45.985Z" style="fill:rgb(0,133,208);"/>
    </g>
    <g transform="matrix(1,0,0,1,-36,-32)">
        <clipPath id="_clip1">
            <rect x="60.224" y="53.599" width="35.547" height="40.8"/>
        </clipPath>
        <g clip-path="url(#_clip1)">
            <path d="M76.864,55.333L79.985,53.599L79.985,63.479L88.39,63.479L88.39,66.753L80.135,66.753L80.182,94.399L61.037,76.688L61.037,73.228L76.934,85.346L76.864,55.333Z" style="fill:white;fill-rule:nonzero;"/>
            <path d="M76.88,60.758L74.616,60.758C74.616,60.758 74.071,57.386 73.5,56.698L70.928,57.843C71.32,58.578 71.817,59.697 72.081,61.131C72.132,61.402 73.046,66.655 70.775,67.825C70.021,68.213 68.917,68.154 68.123,67.584C67.234,66.944 67.073,65.912 67.044,65.678C67.025,65.473 66.971,64.603 67.578,63.86C68.148,63.161 68.931,63.03 69.271,62.971C70.061,62.836 70.698,63.041 70.983,63.154C70.95,62.81 70.906,62.456 70.852,62.086C70.771,61.545 70.672,61.036 70.566,60.564C70.091,60.48 68.869,60.33 67.53,60.934C67.271,61.051 66.437,61.483 65.727,62.302C64.07,64.215 64.18,67.302 66.016,69.179C66.952,70.133 68.028,70.485 68.529,70.594C70.449,71.019 72.428,70.221 73.544,68.912C74.418,67.887 74.641,66.691 74.868,65.484C75.04,64.566 75.062,63.776 75.047,63.216L76.88,63.216L76.88,60.758Z" style="fill:white;fill-rule:nonzero;"/>
            <path d="M95.772,72.229L95.772,76.429L83.102,88.686L82.663,82.651L95.772,72.229Z" style="fill:white;fill-rule:nonzero;"/>
        </g>
    </g>
</svg>
