<svg xmlns="http://www.w3.org/2000/svg" viewBox="0 0 1600 1600" clip-rule="evenodd" fill-rule="evenodd" stroke-linejoin="round" stroke-miterlimit="2"><style>g { fill: #9E1500; } @media (prefers-color-scheme: dark) { g { fill: #FCF2D9; } }</style><g fill-rule="nonzero" transform="translate(151, 98)"><path d="m0 336.841h57.409c2.972 0 5.381-2.409 5.381-5.381v-326.079c0-2.972-2.409-5.381-5.381-5.381h-57.409c-2.972 0-5.381 2.409-5.381 5.381v326.079c0 2.972 2.409 5.381 5.381 5.381" transform="matrix(4.16667 0 0 4.16667 22.421162953 .000393894)"/><path d="m0-336.841h-55.803c-2.972 0-5.381 2.409-5.381 5.381v259.654c0 2.969 2.403 5.376 5.372 5.382l21.136.037c2.968.005 5.371 2.413 5.371 5.381v55.625c0 2.972 2.41 5.381 5.382 5.381h29.304v-.04h27.632c2.972 0 5.381-2.409 5.381-5.381v-55.602c0-2.972-2.409-5.382-5.381-5.382h-22.251c-2.972 0-5.381-2.409-5.381-5.381v-259.674c0-2.972-2.409-5.381-5.381-5.381" transform="matrix(4.16667 0 0 4.16667 698.35128703 1403.50485003)"/><path d="m0-336.841h-55.803c-2.972 0-5.381 2.409-5.381 5.381v259.654c0 2.969 2.403 5.376 5.372 5.382l21.136.037c2.968.005 5.371 2.413 5.371 5.381v55.625c0 2.972 2.41 5.381 5.382 5.381h29.304v-.04h27.632c2.972 0 5.381-2.409 5.381-5.381v-55.602c0-2.972-2.409-5.382-5.381-5.382h-22.251c-2.972 0-5.381-2.409-5.381-5.381v-259.674c0-2.972-2.409-5.381-5.381-5.381" transform="matrix(4.16667 0 0 4.16667 1137.40580494 1403.50485003)"/></g></svg>
