<svg fill="none" height="148" viewBox="0 0 967 148" width="967" xmlns="http://www.w3.org/2000/svg" xmlns:xlink="http://www.w3.org/1999/xlink"><clipPath id="a"><path d="m60.2241 53.5994h35.5471v40.7997h-35.5471z"/></clipPath><rect fill="#0085d0" height="83.9999" rx="13.9847" width="84" x="36" y="32"/><g fill="#fff"><g clip-path="url(#a)"><path d="m76.8644 55.3332 3.1201-1.7338v9.8798h8.4058v3.2738h-8.2558l.0475 27.6461-19.1454-17.7107v-3.4603l15.8973 12.1178z"/><path d="m76.876 60.7582h-2.2605s-.545-3.3725-1.1157-4.0602l-2.5714 1.1449c.3913.7352.8888 1.8545 1.1522 3.2884.0512.2707.9657 5.5234-1.3059 6.6939-.7535.3877-1.8582.3292-2.6519-.2414-.8889-.6401-1.0498-1.6717-1.0791-1.9058-.0183-.2048-.0731-1.0754.5341-1.8179.5706-.6987 1.3534-.8304 1.6935-.8889.7901-.1353 1.4266.0695 1.7119.1829-.0329-.3438-.0768-.6986-.1317-1.0681-.0804-.5413-.1792-1.0498-.2853-1.5216-.4755-.0842-1.6972-.2342-3.036.3694-.2597.117-1.0937.5487-1.8033 1.368-1.657 1.9131-1.5473 5.0003.289 6.8768.9364.9547 2.0118 1.3059 2.5129 1.4156 1.9204.4243 3.8993-.3731 5.0149-1.6826.8743-1.0242 1.0974-2.2203 1.3242-3.4274.1719-.9182.1938-1.7083.1792-2.2679h1.8326v-2.4581z"/><path d="m95.7724 72.2292v4.1993l-12.6709 12.2574-.4389-6.0354z"/></g><path d="m197.864 84.8665c-2.852 3.0425-6.915 4.5334-12.477 4.5334h-11.399v-30.8324h11.443c5.847 0 9.493 1.3084 12.528 4.5205 2.663 2.8543 4.157 6.7762 4.157 10.7975 0 4.1136-1.545 8.0846-4.252 10.981zm-5.651-19.2902c-1.636-1.2301-4.023-1.8299-7.385-1.8299h-4.677v20.4734h4.677c7.008 0 10.934-3.6997 10.934-10.2887 0-3.5045-1.352-6.7283-3.549-8.3548z"/><path d="m209.459 58.567h5.889v30.8324h-5.889z"/><path d="m248.058 88.97c-3.269.7998-5.184 1.029-7.751 1.029-10.237 0-17.336-6.5388-17.336-16.0687 0-4.6679 1.775-8.7254 5.095-11.7679 3.171-2.9046 6.726-4.1172 12.05-4.1172 2.244 0 4.485.2456 6.452.7028 1.49.3765 2.425.7004 4.572 1.6347l-1.401 4.9088c-1.12-.421-1.958-.7005-2.521-.8957-2.196-.7461-4.392-1.1132-6.355-1.1132-6.914 0-11.73 4.2504-11.73 10.3718 0 6.3096 5.283 11.1096 12.151 11.1096 1.404 0 2.196-.1321 4.018-.649v-8.4973h5.884v12.6145c-1.399.3251-2.43.5998-3.128.7378z"/><path d="m260.548 58.5675h5.884v30.8324h-5.884z"/><path d="m289.519 63.5635v25.8359h-5.885v-25.8359h-9.253v-4.9965h24.388v4.9965z"/><path d="m321.439 89.3979-2.427-7.6169h-10.331l-2.516 7.6169h-6.168l11.165-30.8324h5.283l11.166 30.8324zm-7.613-23.7896-3.555 11.1763h7.151z"/><path d="m334.023 89.3999v-30.8324h5.891v25.8277h12.611v5.0047z"/><path d="m400.379 89.3984v-13.2272h-15.836v13.2272h-5.886v-30.8324h5.886v12.3234h15.836v-12.3234h5.886v30.8324z"/><path d="m433.799 89.3989-2.425-7.6169h-10.331l-2.518 7.6169h-6.169l11.169-30.8324h5.28l11.167 30.8324zm-7.612-23.7896-3.555 11.1763h7.152z"/><path d="m461.335 89.3984-7.056-12.3339h-2.942v12.3339h-5.89v-30.8324h10.283c4.485 0 6.541.5578 8.363 2.2872 1.675 1.5423 2.518 3.7792 2.518 6.6721 0 2.3924-.554 4.3054-1.679 5.8056-1.169 1.478-2.245 2.1457-4.809 2.8403l7.658 13.2272zm-6.171-25.8359h-3.827v8.4962h3.827c3.742 0 5.376-1.3073 5.376-4.3826 0-2.9478-1.547-4.1136-5.376-4.1136z"/><path d="m487.372 89.3982h-12.569v-30.8324h11.162c4.019 0 6.031.5074 7.713 2.0463 1.495 1.3084 2.427 3.5044 2.427 5.5168 0 1.7306-.653 3.5465-1.77 4.855-1.358 1.5458-2.62 2.1047-5.051 2.2415 4.673.1053 7.618 3.142 7.618 7.9525 0 5.3216-3.365 8.2203-9.53 8.2203zm-2.571-26.1692h-3.835v7.942h3.505c3.316 0 5.097-1.3915 5.097-4.0155 0-2.4777-1.781-3.9265-4.767-3.9265zm0 12.9419h-3.835v8.5021h3.835c1.818 0 2.662-.0877 3.548-.5589 1.306-.6081 2.102-2.0077 2.102-3.5957 0-2.804-2.008-4.3475-5.65-4.3475z"/><path d="m519.392 89.9995c-9.625 0-16.353-6.6347-16.397-16.0219 0-9.5358 6.633-15.9775 16.397-15.9775 9.723 0 16.353 6.4417 16.353 15.9775 0 9.3872-6.774 16.0219-16.353 16.0219zm0-26.9129c-5.843 0-10.139 4.6726-10.139 10.891 0 6.2617 4.296 10.8875 10.139 10.8875 5.797 0 10.091-4.6258 10.091-10.8875 0-6.2184-4.294-10.891-10.091-10.891z"/><path d="m557.995 89.3977-7.058-12.3339h-2.942v12.3339h-5.89v-30.8324h10.283c4.489 0 6.539.5577 8.363 2.2872 1.684 1.5423 2.526 3.7792 2.526 6.672 0 2.3925-.56 4.3055-1.685 5.8057-1.169 1.478-2.245 2.1457-4.812 2.8402l7.662 13.2273zm-6.174-25.836h-3.826v8.4963h3.826c3.747 0 5.383-1.3073 5.383-4.3826 0-2.9478-1.545-4.1137-5.383-4.1137z"/><path d="m595.858 63.5625v7.9338h10.842v4.9543h-10.842v12.9478h-5.889v-30.8324h19.116v4.9965z"/><path d="m629.881 90c-9.63 0-16.356-6.6347-16.397-16.0219 0-9.5358 6.625-15.9775 16.397-15.9775 9.714 0 16.347 6.4417 16.347 15.9775 0 9.3872-6.775 16.0219-16.347 16.0219zm0-26.9129c-5.842 0-10.142 4.6726-10.142 10.891 0 6.2616 4.3 10.8874 10.142 10.8874 5.787 0 10.088-4.6258 10.088-10.8874 0-6.2184-4.301-10.891-10.088-10.891z"/><path d="m674.374 87.7656c-2.243 1.5365-4.867 2.2334-8.693 2.2334-3.875 0-6.401-.6501-8.741-2.2334-3.178-2.1971-4.21-4.7719-4.21-10.4256v-18.7744h5.851v19.1065c0 4.572 2.382 6.8686 7.289 6.8686 4.486 0 6.867-2.4345 6.867-6.8686v-19.1065h5.883v18.7744c0 5.6537-1.028 8.1759-4.246 10.4256z"/><path d="m707.039 89.6748-13.224-19.9438c-.096-.1333-.329-.5624-.653-1.2219-.235-.3695-.33-.6081-.373-.6478-.182-.38-.278-.5636-.419-1.0805v22.6192h-5.605v-30.8336h6.776l12.94 20.2665c.044.0959.188.3239.325.6584.141.332.233.5203.278.6162l.283.7834.283.5671v-22.8916h5.554v31.1084z"/><path d="m746.259 84.866c-2.851 3.0425-6.913 4.5334-12.477 4.5334h-11.401v-30.8324h11.442c5.84 0 9.494 1.3084 12.518 4.5205 2.676 2.8543 4.168 6.7762 4.168 10.7975 0 4.1136-1.546 8.0846-4.25 10.981zm-5.65-19.2902c-1.642-1.2301-4.022-1.8299-7.386-1.8299h-4.677v20.4735h4.677c7.002 0 10.932-3.6997 10.932-10.2888 0-3.5044-1.356-6.7282-3.546-8.3548z"/><path d="m775.093 89.3979-2.434-7.6169h-10.318l-2.524 7.6169h-6.169l11.166-30.8324h5.278l11.169 30.8324zm-7.619-23.7896-3.549 11.1763h7.147z"/><path d="m798.051 63.5639v25.836h-5.892v-25.836h-9.247v-4.9964h24.383v4.9964z"/><path d="m814.83 58.5675h5.885v30.8324h-5.885z"/><path d="m845.441 90c-9.625 0-16.351-6.6347-16.395-16.0219 0-9.5358 6.627-15.9775 16.395-15.9775 9.718 0 16.352 6.4417 16.352 15.9775 0 9.3872-6.776 16.0219-16.352 16.0219zm0-26.9129c-5.844 0-10.135 4.6726-10.135 10.891 0 6.2616 4.291 10.8874 10.135 10.8874 5.797 0 10.093-4.6258 10.093-10.8874 0-6.2184-4.296-10.891-10.093-10.891z"/><path d="m889.185 89.6729-13.226-19.9438c-.094-.1333-.324-.5625-.65-1.222-.238-.3695-.334-.608-.376-.6478-.187-.38-.278-.5636-.417-1.0804v22.6192h-5.609v-30.8336h6.776l12.941 20.2665c.045.0959.187.3239.324.6583.146.3321.237.5204.285.6162l.281.7835.28.5671v-22.8916h5.559v31.1084z"/></g></svg>